<svg width="125" height="135" viewBox="0 0 125 135" fill="none" xmlns="http://www.w3.org/2000/svg">
<path d="M64 58.5V134H85L124.5 96.5V50L98.5 65.5V73.5L106 69.5V90L85 109V60.5V46L64 58.5Z" fill="#64FFDA"/>
<path d="M98.5 58.5L118 47V1H98.5L62 30.954L23.25 1H6V17.5V25V58.5L27.5 47V28.6859L62 54L98.5 28.6859V58.5Z" fill="#64FFDA"/>
<path d="M1 96.5V67.5L27.5 53V64L17.5 69.5V90L39 109V46L60 58.5V134H40.5L1 96.5Z" fill="#64FFDA"/>
<path d="M64 58.5V134H85L124.5 96.5V50L98.5 65.5V73.5L106 69.5V90L85 109V60.5V46L64 58.5Z" stroke="black"/>
<path d="M98.5 58.5L118 47V1H98.5L62 30.954L23.25 1H6V17.5V25V58.5L27.5 47V28.6859L62 54L98.5 28.6859V58.5Z" stroke="black"/>
<path d="M1 96.5V67.5L27.5 53V64L17.5 69.5V90L39 109V46L60 58.5V134H40.5L1 96.5Z" stroke="black"/>
</svg>
